<svg xmlns="http://www.w3.org/2000/svg" data-name="Layer 1" viewBox="0 0 700 550" id="female-waiter-taking-order"><path fill="#ffe3cb" d="M427.95259,485.10369c16.25-5.08,30.83-10.27,48.37-20.12,18.09-10.16,98.45-58.51,108.9-142.19a159.61541,159.61541,0,0,0-6.66-68.16c-3.23-9.47-9.93-28.49-26.84-47.3-20.7-23.04-44.32-31.97-58.17-37.02-29.14-10.63-53.58-10.07-65.22-9.69-12.56.41-34.73,1.33-59.93,12.34-16.44,7.18-26.66,15.37-41.72,27.61-23.86,19.41-27,27.49-68.74,67.57-11.46,11-20.88,19.67-35.26,28.21-9.97,5.92-18.03,9.23-32.9,15.27-36.55,14.85-46.95658,17.85676-58.91658,26.21676-23.26,16.27-21.75342,34.01324-22.75342,37.83324a75.12694,75.12694,0,0,0-1.77,29.97c3.05,20.07,13.86,33.19,20.57,41.13a113.09822,113.09822,0,0,0,32.9,26.44,210.24676,210.24676,0,0,0,26.96,11.89Z"></path><path fill="#ffe3cb" d="M479.544,470.91847l-.49024-.87207c23.9004-13.42724,102.69727-63.76464,113.17774-147.73681a166.23946,166.23946,0,0,0-6.91406-70.77149c-2.97657-8.73193-9.94922-29.18017-27.84766-49.0957-21.91992-24.39111-46.94531-33.51855-60.38965-38.42187a174.11438,174.11438,0,0,0-67.74707-10.06885c-12.4248.40429-35.55078,1.15674-62.24316,12.81152l-.40039-.916c26.86816-11.73243,51.00879-12.51758,62.61035-12.89454A175.00279,175.00279,0,0,1,497.422,163.08107c13.52637,4.93311,38.7041,14.11621,60.792,38.69336,18.03516,20.06738,25.05371,40.65088,28.05078,49.44092a167.31529,167.31529,0,0,1,6.959,71.21826C582.68564,406.87062,503.548,457.43263,479.544,470.91847Z"></path><path fill="#4f66d0" d="M219.16545,232.442a23.28473,23.28473,0,0,1,.31531,2.77c-.23974.83252-.44617,1.67383-.6709,2.51026l-1.32275,5.02563-.66553,2.51147-.76294,2.48658-.76306,2.48657c-.54541.74145-1.082,1.48389-1.719,2.19311-.12964-.94433-.15882-1.85522-.19678-2.76709l.75915-2.47387.75928-2.47364.66333-2.50366,1.31836-5.01c.21533-.83593.4491-1.66723.64954-2.50732A23.53887,23.53887,0,0,1,219.16545,232.442Z"></path><circle cx="153.097" cy="178.326" r="10.135" fill="#1e1d22"></circle><path fill="#f9977a" d="M186.67553,162.15129l-.647,9.36473a53.80052,53.80052,0,0,0,.57716,11.36753c.68117,4.73634-.59932,8.87937-3.40582,10.8958a7.95968,7.95968,0,0,1-4.44634,1.41489v7.755c.23828,3.49371,4.41888,10.68578,4.27882,15.61491-.16262,5.72327-4.78446,10.67291-6.67386,11.2009-4.07037,1.13723-14.5597-14.59266-16.99293-25.15033V182.58183s-7.922-1.45953-3.33554-9.27734a33.69731,33.69731,0,0,0,4.69059-15.01l8.54742-6.46276Z"></path><path fill="#1e1d22" d="M167.28789 166.182a.57926.57926 0 01-.2876-1.082c3.1543-1.80371 6.55957-.08594 6.70264-.01172a.57893.57893 0 01-.53027 1.0293c-.02979-.01563-2.99756-1.501-5.59815-.01172A.57442.57442 0 01167.28789 166.182zM178.7542 166.182a.57926.57926 0 01-.2876-1.082c3.1543-1.80176 6.55957-.08594 6.70264-.01172a.57893.57893 0 01-.53028 1.0293c-.02978-.01465-2.99658-1.498-5.59814-.01172A.57442.57442 0 01178.7542 166.182zM182.40184 173.791a1.73832 1.73832 0 000-3.47455 1.73832 1.73832 0 000 3.47455zM170.51888 173.68679a1.73832 1.73832 0 000-3.47455 1.73832 1.73832 0 000 3.47455z"></path><path fill="#dd765e" d="M178.3084,180.14488l-.15235-.96289a1.15218,1.15218,0,0,0,.94727-.64453c.84912-1.75879-1.32422-6.31641-2.2334-7.92383l.84863-.48047c.36036.6377,3.48389,6.29786,2.2627,8.82813A2.12945,2.12945,0,0,1,178.3084,180.14488Z"></path><ellipse cx="173.966" cy="184.197" fill="#dd2f22" rx="3.328" ry="2.658"></ellipse><path fill="#dd765e" d="M178.75356,195.19426s-6.25419-.31943-9.277-3.18258c0,0,3.85675,7.66475,9.277,8.70711Z"></path><path fill="#1e1d22" d="M191.80336,163.21653a4.98887,4.98887,0,0,0-2.13343-5.02157c-4.25437-3.00436-6.08833-9.9832-19.3074-9.90713-4.47513.02575-20.62157,2.82059-14.03724,24.49868,0,0,4.91654,5.72991,5.43772.62232s1.66779-13.86346,4.48217-16.15666,7.19232,0,8.86011,1.25084,4.67339,8.70207,13.1338,8.02621A4.35218,4.35218,0,0,0,191.80336,163.21653Z"></path><path fill="#ffba55" d="M178.75356,202.9492c.594,5.03039,1.19943,20.86074-2.99328,22.24084-5.13464,1.69025-14.86023-18.94807-16.39469-21.92593-4.10794,1.46688-12.65272,2.799-17.389,9.2573-6.1937,8.44585-14.63954,23.36691-14.63954,23.36691l17.455,9.00888,3.94126-6.75673,3.80064,24.77479s-7.46039,27.59-8.30523,35.7543c0,0,43.6374,3.65975,63.90761-1.97063,0,0-11.54284-36.88066-13.51347-48.98625l.42213-9.29069,13.09134-.42214s-9.99434-31.1091-21.39628-33.64306A39.73939,39.73939,0,0,0,178.75356,202.9492Z"></path><path fill="#f9977a" d="M218.55193,456.54l.697,8.59769s13.3502,10.74214,30.51365,13.71261c0,0,5.23481,2.44324,5.21117,6.24885l-51.756-.32147.1226-19.7388-.31666-11.99785Z"></path><path fill="#d6694b" d="M254.14335,482.51709l-50.35157-.31274a1.2862,1.2862,0,0,0-1.29416,1.27819l0,.00443a1.2862,1.2862,0,0,0,1.27819,1.29416l51.90869.32256S257.17635,483.55069,254.14335,482.51709Z"></path><path fill="#d6694b" d="M238.4615 475.72109a3.59731 3.59731 0 00-2.67234-.05118 4.0711 4.0711 0 00-2.1528 1.81426 3.54772 3.54772 0 00-.24774 3.05058 3.03673 3.03673 0 002.03327 1.86614 17.999 17.999 0 01.576-2.17043 6.60885 6.60885 0 01.55386-1.117c.19448-.3454.44166-.78056.77186-1.32269C237.65159 477.23938 238.03059 476.6122 238.4615 475.72109zM219.24886 465.13758c-1.55336.60869-2.9375 1.156-4.27772 1.58335a14.24471 14.24471 0 01-3.82964.73115 9.15264 9.15264 0 01-3.68871-.585 18.43327 18.43327 0 01-1.97-.79505c-.68647-.30783-1.32274-.72558-2.14245-1.03325a9.874 9.874 0 001.05677 2.26293 8.15428 8.15428 0 001.77032 1.8563 7.59671 7.59671 0 005.09269 1.63159 8.97411 8.97411 0 004.93194-1.753A8.65621 8.65621 0 00219.24886 465.13758z"></path><path fill="#f9977a" d="M153.66813,456.5377l-.697,8.59769S139.621,475.87753,122.45753,478.848c0,0-5.23481,2.44324-5.21118,6.24885l51.756-.32147-.1226-19.7388.31665-11.99785Z"></path><path fill="#d6694b" d="M118.07671,482.51481l50.35156-.31274a1.28621,1.28621,0,0,1,1.29417,1.27819l0,.00443a1.28619,1.28619,0,0,1-1.27818,1.29416l-51.90869.32256S115.0437,483.54841,118.07671,482.51481Z"></path><path fill="#d6694b" d="M133.75856 475.71881a3.59724 3.59724 0 012.67233-.05118 4.071 4.071 0 012.1528 1.81426 3.54767 3.54767 0 01.24774 3.05057 3.03668 3.03668 0 01-2.03327 1.86615 18.00123 18.00123 0 00-.576-2.17043 6.60922 6.60922 0 00-.55386-1.117c-.19449-.34541-.44166-.78056-.77187-1.3227C134.56846 477.2371 134.18946 476.60992 133.75856 475.71881zM152.9712 465.1353c1.55335.60869 2.93749 1.156 4.27772 1.58334a14.24422 14.24422 0 003.82963.73116 9.15276 9.15276 0 003.68871-.585 18.43256 18.43256 0 001.97-.79505c.68646-.30783 1.32273-.72558 2.14245-1.03325a9.875 9.875 0 01-1.05677 2.26293 8.15449 8.15449 0 01-1.77032 1.8563 7.59671 7.59671 0 01-5.09269 1.63159 8.97411 8.97411 0 01-4.93194-1.753A8.6562 8.6562 0 01152.9712 465.1353z"></path><path fill="#e6952a" d="M193.35588 228.287a10.22888 10.22888 0 011.15931 2.36255 15.3202 15.3202 0 01.66589 2.54 12.28743 12.28743 0 01-.136 5.23242c-.18493-.86987-.28735-1.71435-.43213-2.55542-.13757-.83935-.26184-1.67529-.41687-2.50781C193.92375 231.68443 193.592 230.03258 193.35588 228.287zM148.73333 238.14049c.80407-2.8125 1.69055-5.55054 2.4696-8.32105q.58869-2.07421 1.08472-4.17016c.3042-1.40332.59875-2.80908.80944-4.25977a22.60038 22.60038 0 01-.93249 8.70191A33.36285 33.36285 0 01148.73333 238.14049z"></path><polygon fill="#f9977a" points="207.02 238.036 210.529 246.164 194.623 247.713 194.211 238.422 207.02 238.036"></polygon><path fill="#8b9d36" d="M146.0837,296.69893s-9.60107-1.40777-4.39288,55.46132c5.16224,56.3675,4.06163,96.9065,5.35351,107.31845a2.999,2.999,0,0,0,2.977,2.62921h18.68532a3,3,0,0,0,2.998-3.11l2.673-145.12572,25.86929,145.91408a3,3,0,0,0,2.9223,2.32168h16.07013a3,3,0,0,0,2.97633-3.37607L209.9913,298.66956Z"></path><path fill="#b02336" d="M180.42217 313.96227l-1.15918-.17969c.01806-.11621 1.78369-11.66113.03564-15.99121l1.08789-.43946C182.25518 301.98082 180.49785 313.47594 180.42217 313.96227zM142.35234 315.50914l-.36132-1.11523c11.8496-3.8418 15.58154-16.19434 15.61816-16.31836l1.126.32812C158.69756 298.53355 154.80449 311.473 142.35234 315.50914zM211.89287 311.03355a28.34873 28.34873 0 01-13.58057-13.80371l1.06739-.48828a27.59787 27.59787 0 0012.96338 13.208z"></path><path fill="#f73c4f" d="M204.1654,283.67306s7.77149,7.67667,12.20559,50.75079c0,0-34.13553,14.63957-80.025,0l10.90467-50.75079S167.53707,288.38371,204.1654,283.67306Z"></path><path fill="#ffba55" d="M157.11777,183.48541a1.5009,1.5009,0,0,0,0-3,1.5009,1.5009,0,0,0,0,3Z"></path><polygon fill="#4f66d0" points="235.445 244.756 193.356 244.756 166.47 283.045 204.165 283.673 235.445 244.756"></polygon><path fill="#f9977a" d="M144.792,244.89726l-17.45487-9.009s-14.63957,20.20358-3.09683,25.86748,40.25881,10.4499,40.25881,10.4499,11.26121,4.223,16.61028,1.68919,5.6306-6.19367,5.6306-6.19367,11.54274.56306,9.572-2.8153c0,0-4.446-1.68918-15.70721-1.97071l2.33527-3.32562s-10.2766-.68239-17.31485,2.16621l-25.33771-8.41262Z"></path><rect width="2.874" height=".975" x="177.731" y="262.428" fill="#dd765e"></rect><rect width="4.786" height=".975" x="181.954" y="267.214" fill="#dd765e"></rect><path fill="#dd765e" d="M140.06963,253.77867a20.05112,20.05112,0,0,0-7.665-1.91894v-.97461a20.64735,20.64735,0,0,1,8.10059,2.02246Z"></path><path fill="#d6d6d6" d="M208.1364 291.56773a102.74715 102.74715 0 01-15.46655 3.74732 122.24694 122.24694 0 01-15.87134 1.62891 95.23439 95.23439 0 01-15.964-.85914 56.87826 56.87826 0 01-15.28015-4.51709 87.89889 87.89889 0 0015.4718 2.96827c1.30957.08252 2.61633.17236 3.92066.27978 1.30127.13745 2.61889.09277 3.92651.14429 2.61621.12842 5.24219.02588 7.8623-.01392 5.24585-.154 10.48414-.60766 15.7179-1.1709C197.68474 293.17833 202.91 292.4547 208.1364 291.56773zM211.14214 301.73863A110.48361 110.48361 0 01194.5208 306.027a122.84005 122.84005 0 01-17.10583 1.90723c-2.87391.07861-5.75293.105-8.6294-.04736a80.6541 80.6541 0 01-8.59167-.89576 62.67169 62.67169 0 01-8.413-1.94677 49.37422 49.37422 0 01-7.93994-3.30567 70.79541 70.79541 0 0016.56226 3.70581 117.0785 117.0785 0 0016.93762.49243c5.65735-.19091 11.3064-.73779 16.94128-1.44628C199.91118 303.73692 205.53972 302.87145 211.14214 301.73863zM213.34478 312.30162a104.48431 104.48431 0 01-17.52186 5.0293 115.51535 115.51535 0 01-18.15515 2.1958c-3.055.08472-6.115.06274-9.17016-.106a84.68483 84.68483 0 01-9.11157-1.1001 67.94291 67.94291 0 01-8.88038-2.28784 55.30492 55.30492 0 01-8.33422-3.7312 72.30949 72.30949 0 008.61352 2.7915 88.21966 88.21966 0 008.84522 1.686 108.53486 108.53486 0 0017.965.75 160.53859 160.53859 0 0017.95886-1.72949C201.51018 314.87437 207.4572 313.77306 213.34478 312.30162zM215.06694 323.38463a93.36572 93.36572 0 01-18.73059 5.36743 111.3763 111.3763 0 01-19.45825 1.85327c-3.26562.08716-6.52673-.16089-9.78625-.32031l-4.86475-.56787c-.8092-.104-1.62244-.17529-2.42749-.3064l-2.40442-.46509a88.36341 88.36341 0 01-18.67712-5.561q2.36809.58923 4.704 1.23047l2.33728.63183c.78161.19825 1.58459.31763 2.37439.48l4.734.97022c1.58667.26831 3.18567.46948 4.775.70752l2.38562.34424c.797.09814 1.60046.15014 2.4.22754l4.8.41967c3.21167.09864 6.4176.32959 9.63172.21045a145.36909 145.36909 0 0019.22888-1.3894l4.77734-.73c1.585-.28687 3.17542-.5625 4.75745-.87988C208.799 325.0089 211.93816 324.24352 215.06694 323.38463z"></path><polygon fill="#c38f86" points="367.719 371.518 380.139 264.794 464.945 266.411 452.673 367.988 367.719 371.518"></polygon><rect width="9.281" height="117.038" x="432.833" y="367.988" fill="#c38f86"></rect><rect width="9.281" height="117.038" x="362.126" y="367.988" fill="#c38f86"></rect><rect width="102.566" height="15.477" x="350.107" y="362.569" fill="#f65b2b" rx="7.739"></rect><path fill="#f9977a" d="M323.86047,288.9096s-1.77738-4.60175-11.47991-9.52508-17.86292-7.76369-11.996-2.82337l4.53315,3.69065s-8.74091-.34575-13.93013-1.00778a6.47791,6.47791,0,0,0-6.78467,3.65824c-1.054,2.37807-.32709,4.33306,5.48743,6.25058,8.69642,2.86791,13.37209,4.13516,15.72656,4.21486.81569.02761,9.66255-.38662,9.66255-.38662Z"></path><path fill="#dd765e" d="M310.17761,280.88312a8.1757,8.1757,0,0,1-1.34628.0516,13.11856,13.11856,0,0,1-1.318-.10094c-.435-.06175-.86961-.12266-1.3-.2253a9.90926,9.90926,0,0,1-1.29559-.35669,5.78845,5.78845,0,0,1,1.34628-.15368,9.169,9.169,0,0,1,1.33288.07472,9.75113,9.75113,0,0,1,1.30765.2566A6.71673,6.71673,0,0,1,310.17761,280.88312Z"></path><path fill="#f9977a" d="M356.97131,457.08111l.69167,21.83872s-12.24158,3.00119-18.01148-11.195l1.01177-12.7526Z"></path><path fill="#935b50" d="M357.43554,464.52047s9.73482,12.15978,4.33918,19.32681a2.999,2.999,0,0,1-2.41365,1.17863l-48.2624-.262a1.57342,1.57342,0,0,1-1.5494-1.7585c.277-2.50021,1.44413-7.02179,6.16528-9.09813,6.71273-2.95222,11.475,2.36747,22.66869-7.2596C338.38324,466.64767,352.89268,470.81736,357.43554,464.52047Z"></path><path fill="#f9977a" d="M415.273,457.08111l.69167,21.83872s-12.24157,3.00119-18.01148-11.195l1.01177-12.7526Z"></path><path fill="#935b50" d="M415.73719,464.52047s9.73481,12.15978,4.33917,19.32681a2.999,2.999,0,0,1-2.41364,1.17863l-48.26241-.262a1.57342,1.57342,0,0,1-1.5494-1.7585c.277-2.50021,1.44413-7.02179,6.16529-9.09813,6.71272-2.95222,11.475,2.36747,22.66869-7.2596C396.68489,466.64767,411.19432,470.81736,415.73719,464.52047Z"></path><path fill="#f73c4f" d="M384.03213,239.90314,371.297,246.155a16.52491,16.52491,0,0,0-6.78222,6.14785c-3.08436,4.98951-11.39512,25.0265-13.83958,30.97612a2.31708,2.31708,0,0,1-2.48023,1.41128l-34.08935-5.6248a14.84969,14.84969,0,0,1-3.13928,14.74634l45.12581,13.35874a9.22951,9.22951,0,0,0,10.09607-4.72051l7.11248-13.489s5.21241,10.118,12.26441,22.99573l-1.533,18.39675h73.89316l-4.29254-48.13812s.30657-31.27417-14.10407-39.85939c0,0-8.58515-5.51877-25.1421-5.21227a17.54222,17.54222,0,0,0-4.13922-6.094Z"></path><path fill="#6c7fd8" d="M458.08,330.269s9.79465,36.85353-39.17861,37.98749l2.36842,90.85034a3,3,0,0,1-2.999,3.07818h-22.9194a3,3,0,0,1-2.99812-2.89378l-3.3256-93.86963-23.92237,1.28817-1.97092,92.53912a3,3,0,0,1-2.99932,2.93612H338.965a3,3,0,0,1-2.9996-3.04867l1.64043-101.08544c0-15.34352,10.74377-27.7819,23.99689-27.7819Z"></path><path fill="#4f66d0" d="M422.49274 353.704a24.44481 24.44481 0 01-.22741 7.68433 16.77307 16.77307 0 01-1.11069 3.72345 7.92462 7.92462 0 01-2.25325 3.14484 11.99787 11.99787 0 001.58976-3.39608 28.48758 28.48758 0 00.88138-3.64112C421.8497 358.7533 422.12674 356.24487 422.49274 353.704zM402.577 330.269a5.65267 5.65267 0 00-4.60166 1.517 12.76234 12.76234 0 00-3.00117 3.949 36.10589 36.10589 0 00-3.23494 9.52363l-.56007 2.47206-.40745 2.507-.40413 2.50871c-.08579.84367-.18716 1.68535-.29509 2.52733-.47879 3.36308-.654 6.75832-1.04478 10.14791.01325-3.40453.014-6.82092.34922-10.22038.0607-.85156.12788-1.70312.21071-2.5527l.36635-2.53776.37087-2.53832.52891-2.51548a34.264 34.264 0 013.51422-9.66433 13.17314 13.17314 0 013.33419-3.95552A5.68515 5.68515 0 01402.577 330.269zM365.10535 366.70973l-1.07368-2.3353c-.36565-.75992-.7208-1.51758-1.1458-2.22815a10.40962 10.40962 0 00-3.24212-3.71725 4.92217 4.92217 0 012.36688 1.17978 8.2117 8.2117 0 011.66392 2.08631A10.88407 10.88407 0 01365.10535 366.70973z"></path><path fill="#f9977a" d="M389.29075,313.284l-15.90454-2.85268a6.03885,6.03885,0,0,0-4.955,1.08914l-10.53789,8.0088c2.30989,5.47529,31.04458,5.40942,31.04458,5.40942S392.46634,313.46418,389.29075,313.284Z"></path><path fill="#dd765e" d="M361.87331 322.13405a57.639 57.639 0 014.54667-3.98991c1.57615-1.25027 3.18559-2.45711 4.84464-3.59854l.09291-.064.08058-.00564q2.02967-.1383 4.07887-.10122-1.99117.48513-4.00154.79685l.17313-.06908c-1.542 1.2951-3.13378 2.52506-4.75865 3.71161A57.647 57.647 0 01361.87331 322.13405zM367.8524 323.51516a30.21006 30.21006 0 012.974-2.94916c1.04971-.91133 2.1253-1.79081 3.25276-2.60655l.08833-.064.06549-.01156a28.57783 28.57783 0 013.4228-.408 28.52417 28.52417 0 01-3.25 1.149l.15339-.07528c-1.02814.93784-2.10817 1.81195-3.214 2.65421A30.24485 30.24485 0 01367.8524 323.51516zM374.99 324.3873a11.7493 11.7493 0 012.347-3.2613l.10954-.11476.12266-.01889a9.85126 9.85126 0 012.56758-.09418 9.87521 9.87521 0 01-2.39424.9322l.23186-.13337A11.75075 11.75075 0 01374.99 324.3873z"></path><path fill="#b02336" d="M365.1069 272.55083c.84655 1.33345 1.61669 2.705 2.37513 4.0824.76013 1.37659 1.45752 2.78448 2.18931 4.17517.67532 1.41889 1.38075 2.82283 2.0278 4.25582.64643 1.43355 1.28192 2.87245 1.83959 4.35027-.84768-1.33288-1.61753-2.70468-2.37639-4.08184-.75823-1.37743-1.45808-2.78419-2.188-4.17573-.67349-1.42-1.38146-2.82255-2.02661-4.25666C366.30084 275.467 365.66563 274.02808 365.1069 272.55083zM350.84951 292.02049a19.5001 19.5001 0 016.53578 1.9614 13.857 13.857 0 012.88514 1.89711 7.63054 7.63054 0 012.077 2.73373 11.97054 11.97054 0 00-2.4533-2.25494 21.77309 21.77309 0 00-2.8604-1.68c-.98522-.51347-2.01153-.95448-3.04312-1.39182C352.95359 292.86161 351.9129 292.42878 350.84951 292.02049zM425.20264 264.57889a43.64205 43.64205 0 012.27679-6.01984 46.69248 46.69248 0 013.09705-5.664 27.27523 27.27523 0 014.10538-5.00869 12.442 12.442 0 015.54464-3.237 14.71291 14.71291 0 00-5.12337 3.66451 30.40241 30.40241 0 00-3.874 5.00728 58.52163 58.52163 0 00-3.21357 5.50185C427.02439 260.70825 426.09276 262.62905 425.20264 264.57889zM423.363 270.098a103.63886 103.63886 0 00.4243 14.53541 52.55123 52.55123 0 001.18 7.1576 22.30818 22.30818 0 002.56222 6.70588l.03383.05329.00015.0626.02284 7.66515.0007.21486-.21529.02171-39.38786 3.94988.1376-.66489a6.53549 6.53549 0 012.485 4.10411 14.75951 14.75951 0 01.197 4.71148c-.09674.77571-.21621 1.55057-.36974 2.31472-.1964.75315-.33816 1.52406-.58263 2.2617-.43459 1.49474-.99388 2.9407-1.56008 4.38355l-.34154-.51037 40.3.12069 10.075.03017 5.03752.01522a17.64932 17.64932 0 004.952-.34513 9.33459 9.33459 0 004.201-2.51576 9.68771 9.68771 0 002.36617-4.32124 42.09665 42.09665 0 001.43658-9.93756 42.1769 42.1769 0 01-1.26683 9.98183 9.908 9.908 0 01-2.34446 4.45743 9.64129 9.64129 0 01-4.29466 2.67226 16.9364 16.9364 0 01-5.04985.41506l-5.03752.01494-10.075.03046-40.3.12068-.53906.00169.19738-.51234c.54872-1.42481 1.09081-2.851 1.50686-4.31559a29.03048 29.03048 0 00.9272-4.44474 14.02277 14.02277 0 00-.15537-4.465 5.93683 5.93683 0 00-2.109-3.64591l-.83478-.57325.97239-.09164 39.41063-3.71528-.21437.2363.02284-7.66515.03391.11589a22.32932 22.32932 0 01-2.56891-6.85194 52.8667 52.8667 0 01-1.06269-7.21907A103.75219 103.75219 0 01423.363 270.098z"></path><path fill="#b02336" d="M408.64562 325.28792a24.86064 24.86064 0 00-.0134-4.553 19.69726 19.69726 0 00-.90316-4.40273 18.86917 18.86917 0 00-.77232-2.10634c-.34506-.66376-.66263-1.34416-1.06959-1.97634a23.10121 23.10121 0 00-2.755-3.61574 14.26561 14.26561 0 013.2563 3.28583 14.80483 14.80483 0 012.08384 4.178 17.34028 17.34028 0 01.7564 4.60264A14.919 14.919 0 01408.64562 325.28792zM444.21247 318.38917a41.51807 41.51807 0 00-3.5924-3.85146 33.07184 33.07184 0 00-4.0473-3.32531 34.36412 34.36412 0 00-4.47815-2.68748 26.155 26.155 0 00-4.8302-1.87258l-1.07713-.291.99938-.43114a24.61567 24.61567 0 014.65671-1.44708 19.45516 19.45516 0 014.84613-.43988 14.36569 14.36569 0 014.748 1.03879 11.39192 11.39192 0 013.84809 2.88233 12.006 12.006 0 00-3.98527-2.5434 14.28764 14.28764 0 00-4.62512-.79826 22.52918 22.52918 0 00-4.68421.54477 23.96759 23.96759 0 00-4.4797 1.45836l-.07775-.72213a24.1179 24.1179 0 014.98556 1.97973 30.33066 30.33066 0 014.51748 2.8296 32.26663 32.26663 0 017.27589 7.67614zM359.43459 276.23029a34.87522 34.87522 0 015.118 2.11339 34.47494 34.47494 0 014.77028 2.81155 34.50233 34.50233 0 01-5.11795-2.11367A34.90816 34.90816 0 01359.43459 276.23029zM384.27005 240.35658a6.07524 6.07524 0 00-1.46336 3.27089 21.44736 21.44736 0 00-.35614 3.62729c-.02573 1.21869-.0203 2.43963.05725 3.65973.06062 1.22122.20584 2.43709.29677 3.65831l-.64769-.21711a9.60163 9.60163 0 012.59323-1.77672 6.80491 6.80491 0 013.0561-.67955 6.13217 6.13217 0 012.9956.7915 8.30611 8.30611 0 011.27142.86142c.39131.32512.73144.70888 1.08856 1.06163-.40879-.30086-.79122-.62767-1.20156-.90992a8.0233 8.0233 0 00-1.31019-.70071 5.9841 5.9841 0 00-2.83382-.54674 7.30121 7.30121 0 00-2.76989.74412 8.94679 8.94679 0 00-2.34221 1.67182l-.55824.5631-.08966-.7805a43.73538 43.73538 0 01-.24483-7.4328 21.93561 21.93561 0 01.60117-3.68934 9.70192 9.70192 0 01.68273-1.74738A3.47819 3.47819 0 01384.27005 240.35658zM414.62457 237.5972a32.55353 32.55353 0 01-.48563 5.45814 39.25051 39.25051 0 01-1.29919 5.34254 36.11063 36.11063 0 01-2.07645 5.10568 30.32646 30.32646 0 01-2.90488 4.69626l-.27281.38489-.30227-.38912a10.51 10.51 0 00-2.37168-2.178 11.72239 11.72239 0 00-2.89833-1.50658 13.322 13.322 0 00-3.218-.69929 17.14318 17.14318 0 00-3.334.03581 14.58953 14.58953 0 013.35118-.33357 11.77136 11.77136 0 013.357.52475 12.20812 12.20812 0 013.10995 1.43186 11.10119 11.10119 0 012.58209 2.30738l-.5748-.00451a37.40525 37.40525 0 004.91584-9.58905A47.53151 47.53151 0 00414.62457 237.5972zM394.08165 254.614l1.563 27.315q.358 6.82741.88715 13.64185c.16136 2.27213.35895 4.5423.61731 6.80344.11639 1.13268.2265 2.26706.41577 3.38874.09573.56028.14416 1.13269.27894 1.68423l.399 1.66223c-1.36651-4.368-1.79327-8.95969-2.30879-13.48479-.47682-4.542-.76746-9.09729-1.06741-13.65058-.23833-4.557-.45644-9.11421-.58953-13.67456l-.16059-6.8415z"></path><path fill="#f9977a" d="M404.32246,188.31847a22.657,22.657,0,0,0-10.61966.20328c-1.63039.4589-7.59341,2.13721-10.79953,7.4642-1.2177,2.02306-1.62887,4.52679-2.45183,9.5342-.514,3.12771-1.87624,5.30174-2.12959,9.14132-.14234,2.15563-2.08185,12.24555,1.57173,17.48879,2.58011,3.70269,11.40114,1.51421,11.22725,6.0856-.10737,2.82272-9.75569,11.448-6.5443,12.247,7.42213,1.84653,16.13609.011,20.34861-1.85479.57424-.25434,7.11-1.71775,6.89152-6.73732-.11678-2.68154-.87277-19.69462-.54867-21.29181,1.17192-5.77284,4.15441-6.28812,6.93649-13.1756a10.97663,10.97663,0,0,0-1.10834-10.67994A22.42121,22.42121,0,0,0,404.32246,188.31847Z"></path><ellipse cx="381.334" cy="210.541" fill="#0a0709" rx="1.474" ry="1.185" transform="rotate(-86.197 381.334 210.541)"></ellipse><ellipse cx="391.999" cy="211.25" fill="#0a0709" rx="1.474" ry="1.185" transform="rotate(-86.197 391.999 211.25)"></ellipse><path fill="#1e1d22" d="M387.18438 208.2833a.74324.74324 0 01-.44664-.14888 6.32907 6.32907 0 00-7.13842-.50417.74846.74846 0 01-.81885-1.25308 7.94846 7.94846 0 018.85282.55943.74779.74779 0 01-.44891 1.3467zM398.23659 209.01756a.74321.74321 0 01-.44664-.14888 6.32434 6.32434 0 00-7.13956-.503.74846.74846 0 01-.81884-1.25309 7.94145 7.94145 0 018.85394.55831.74779.74779 0 01-.4489 1.3467z"></path><path fill="#dd765e" d="M388.13076 208.653a5.87049 5.87049 0 01-.544 3.69666 13.575 13.575 0 01-2.03845 3.186c-.42071.4833-1.01059.82618-1.00516 1.32894a2.13424 2.13424 0 00.69985 1.47528 4.60449 4.60449 0 003.38826.99114 4.29075 4.29075 0 01-3.65063-.71114 2.37848 2.37848 0 01-.89076-1.78066 1.45221 1.45221 0 01.449-.97055l.64437-.67194a14.888 14.888 0 002.065-3.02416A6.68787 6.68787 0 00388.13076 208.653zM407.47783 210.439a3.11077 3.11077 0 012.36145 1.1575 5.48269 5.48269 0 01.73334 1.12479l.24651.61809c.04956.21853.11385.42888.14719.64853a17.80738 17.80738 0 00-1.49953-2.06065 5.46356 5.46356 0 00-.89322-.85325A4.49955 4.49955 0 00407.47783 210.439z"></path><path fill="#dd765e" d="M408.03106,216.63618a4.32883,4.32883,0,0,1-.27352-2.84257,4.79149,4.79149,0,0,1,.56035-1.347,3.98637,3.98637,0,0,1,.95991-1.07206c-.21775.43-.45468.8228-.61949,1.24914a6.11736,6.11736,0,0,0-.41563,1.283A9.08776,9.08776,0,0,0,408.03106,216.63618Z"></path><path fill="#1e1d22" d="M404.36491,218.54239a11.54467,11.54467,0,0,1,1.09526-4.84685c.9871-2.096,2.21756-4.95946,4.33559-5.01473,1.56059-.04073,2.21093-.4088,2.66992,1.12525.7583,2.53774-1.02675,5.163-2.26951,6.99157-1.77931,2.61637-3.176,3.12056-3.32587,5.0026-.11451,1.43571,3.79391,4.62453,4.60874,4.115,1.661-1.03864,1.02108-4.52463,5.888-12.396,3.07358-4.97039,4.39354-5.85338,4.92353-9.0485.1881-1.13447.96692-5.8312-1.69563-8.76989-1.235-1.36307-2.01133-1.0244-7.5884-3.83585a47.43482,47.43482,0,0,1-4.52368-2.46153c-4.405-2.80073-4.21795-4.07833-6.84221-5.01647-2.37071-.84738-2.58252.17478-7.17839-.40511-4.431-.559-4.75977-1.57561-6.85525-1.12581-3.63822.78079-5.60656,4.48042-6.13517,5.47453a12.31557,12.31557,0,0,0-1.75945,5.65134,11.1105,11.1105,0,0,0,1.79819,5.73311c.54072.62937,3.11914-2.61985,4.486-3.81583,1.3402-1.17166,2.73372-.56281,4.67114-.31254,1.88906.244,1.70677,1.41854,4.44354,2.64227.97511.43595,5.10027-1.09239,6.24586,1.21053,1.22062,2.45372,2.27274,2.81112,1.47985,4.96613-.4954,1.34634-.35745,3.05-.08162,6.45765.1977,2.44543-2.32375,10.77353-2.32375,10.77353C399.60787,223.0713,404.34031,222.28126,404.36491,218.54239Z"></path><path fill="#dd765e" d="M390.741,224.69215a5.41521,5.41521,0,0,1-1.99672,1.61908,5.67488,5.67488,0,0,1-2.59211.59553,6.03135,6.03135,0,0,1-1.35375-.212,4.97675,4.97675,0,0,1-1.214-.61019,4.72676,4.72676,0,0,1-1.667-1.97889,13.37025,13.37025,0,0,0,2.11106,1.16088,5.45492,5.45492,0,0,0,2.15153.44862A12.36552,12.36552,0,0,0,390.741,224.69215Z"></path><path fill="#f73c4f" d="M414.50672,237.5972s-.30661,11.3446-7.052,20.38962c0,0-3.98593-5.519-12.11112-4.13925,0,0,17.05192-14.15066,16.29008-16.25037Z"></path><path fill="#b02336" d="M414.5067,237.5972a32.54617,32.54617,0,0,1-.48562,5.45814,39.23991,39.23991,0,0,1-1.29912,5.34254,36.11181,36.11181,0,0,1-2.07645,5.10568,30.33258,30.33258,0,0,1-2.90488,4.69626l-.27288.38489-.30221-.38912a10.51127,10.51127,0,0,0-2.37167-2.178,11.72406,11.72406,0,0,0-2.8984-1.50658,13.32163,13.32163,0,0,0-3.21794-.69929,17.14312,17.14312,0,0,0-3.334.03581,14.58914,14.58914,0,0,1,3.35118-.33357,11.77049,11.77049,0,0,1,3.35688.52475,12.20731,12.20731,0,0,1,3.11,1.43186,11.10092,11.10092,0,0,1,2.582,2.30738l-.5748-.00451a37.40578,37.40578,0,0,0,4.91591-9.58905A47.52693,47.52693,0,0,0,414.5067,237.5972Z"></path><rect width="9.666" height="153.33" x="261.78" y="331.774" fill="#935b50" transform="rotate(-180 266.614 408.439)"></rect><rect width="290.485" height="7.414" x="243.274" y="324.36" fill="#935b50" rx="1.666" transform="rotate(-180 388.516 328.067)"></rect><rect width="9.666" height="153.33" x="504.815" y="331.774" fill="#935b50" transform="rotate(-180 509.648 408.439)"></rect><path fill="#c38f86" d="M257.51243,331.77366h261.347a3.33293,3.33293,0,0,1,3.33293,3.33293v20.9159a0,0,0,0,1,0,0H254.17951a0,0,0,0,1,0,0v-20.9159a3.33293,3.33293,0,0,1,3.33293-3.33293Z" transform="rotate(-180 388.186 343.898)"></path><path fill="#dd765e" d="M398.98616,234.85285a16.90323,16.90323,0,0,1-10.35486.51422v.008c1.495.488,2.55066,1.25525,2.48956,2.86078-.03607.94763-1.14862,2.54993-2.48767,4.2898C391.24605,243.46674,398.98616,234.85285,398.98616,234.85285Z"></path><path fill="#f73c4f" d="M393.044,254.61408c-5.519-5.519-10.73135,0-10.73135,0-1.37976-12.57105,1.83966-14.25739,1.83966-14.25739l6.92248-2.75946A30.25366,30.25366,0,0,0,390.64,243.44,30.749,30.749,0,0,0,393.044,254.61408Z"></path><path fill="#b02336" d="M384.15226,240.35658a6.07525,6.07525,0,0,0-1.46337,3.27089,21.44118,21.44118,0,0,0-.35613,3.62729c-.0258,1.21869-.0203,2.43963.05724,3.65973.06063,1.22122.20584,2.43709.29678,3.65831l-.64776-.21711a9.60182,9.60182,0,0,1,2.5933-1.77672,6.80443,6.80443,0,0,1,3.05609-.67955,6.13192,6.13192,0,0,1,2.99554.7915,8.30381,8.30381,0,0,1,1.27149.86142c.3913.32512.73136.70888,1.08855,1.06163-.40879-.30086-.79121-.62767-1.20156-.90992a8.02673,8.02673,0,0,0-1.31025-.70071,5.98386,5.98386,0,0,0-2.83376-.54674,7.301,7.301,0,0,0-2.76989.74412,8.94712,8.94712,0,0,0-2.34221,1.67182l-.5583.5631-.0896-.7805a43.73539,43.73539,0,0,1-.24489-7.4328,21.94269,21.94269,0,0,1,.60116-3.68934,9.70192,9.70192,0,0,1,.68273-1.74738A3.47838,3.47838,0,0,1,384.15226,240.35658Z"></path><rect width="56.441" height="56.441" x="276.371" y="63.896" fill="#d6d6d6"></rect><path fill="#4f66d0" d="M334.31182,121.83727H274.8709V62.39586h59.44092Zm-56.44092-3h53.44092V65.39586H277.8709Z"></path><ellipse cx="291.951" cy="99.227" fill="#fcc786" rx="7.11" ry="6.094"></ellipse><ellipse cx="304.591" cy="99.227" fill="#ffba55" rx="7.11" ry="6.094"></ellipse><ellipse cx="317.231" cy="99.227" fill="#e6952a" rx="7.11" ry="6.094"></ellipse><ellipse cx="310.911" cy="91.327" fill="#fcc786" rx="7.11" ry="6.094"></ellipse><ellipse cx="298.271" cy="91.327" fill="#e6952a" rx="7.11" ry="6.094"></ellipse><rect width="45.82" height="4.74" x="281.681" y="102.161" fill="#4f66d0"></rect><ellipse cx="304.591" cy="83.427" fill="#ffba55" rx="7.11" ry="6.094"></ellipse><rect width="56.441" height="56.441" x="489.231" y="63.896" fill="#d6d6d6"></rect><path fill="#4f66d0" d="M547.17217,121.83727H487.73125V62.39586h59.44092Zm-56.44092-3h53.44092V65.39586H490.73125Z"></path><rect width="24.698" height="1.001" x="505.603" y="84.441" fill="#f73c4f" transform="rotate(-68.593 517.952 84.942)"></rect><rect width="1" height="24.698" x="512.452" y="72.593" fill="#f73c4f" transform="rotate(-10.292 512.952 84.942)"></rect><path fill="#ffba55" d="M506.01137,95.66847c-.46656-1.61465.9697-3.65147,1.76747-4.78289.60685-.86066,2.55648-3.62553,4.57483-3.32731,1.70363.25172,1.8817,2.45307,3.63918,2.59929,1.15064.09574,1.41719-.81928,3.27518-1.50771a8.46625,8.46625,0,0,1,5.09477-.20806c.4618.13483,3.708,1.08264,4.471,3.743a5.37231,5.37231,0,0,1-.62376,3.95106C524.71266,102.01406,507.35786,100.32889,506.01137,95.66847Z"></path><path fill="#4f66d0" d="M517.45183,111.442a14,14,0,0,1-14-14v-3h28v3A14,14,0,0,1,517.45183,111.442Z"></path><circle cx="509.952" cy="90.942" r=".5" fill="#e6952a"></circle><circle cx="513.952" cy="91.942" r=".5" fill="#e6952a"></circle><circle cx="523.952" cy="89.942" r=".5" fill="#e6952a"></circle><circle cx="519.952" cy="92.942" r=".5" fill="#e6952a"></circle><circle cx="518.952" cy="90.942" r=".5" fill="#e6952a"></circle><ellipse cx="525.702" cy="92.942" fill="#e6952a" rx=".25" ry=".5"></ellipse><circle cx="511.952" cy="92.942" r=".25" fill="#e6952a"></circle><circle cx="516.952" cy="91.942" r=".25" fill="#e6952a"></circle><circle cx="507.952" cy="92.942" r=".25" fill="#e6952a"></circle><circle cx="511.952" cy="89.942" r=".25" fill="#e6952a"></circle><circle cx="515.952" cy="93.942" r=".25" fill="#e6952a"></circle><circle cx="520.952" cy="89.942" r=".25" fill="#e6952a"></circle><circle cx="522.952" cy="92.942" r=".25" fill="#e6952a"></circle><circle cx="525.952" cy="90.942" r=".25" fill="#e6952a"></circle><rect width="56.441" height="56.441" x="382.812" y="63.896" fill="#d6d6d6"></rect><path fill="#4f66d0" d="M440.75273,121.83727H381.31182V62.39586h59.44091Zm-56.44091-3h53.44091V65.39586H384.31182Z"></path><path fill="#8b9d36" d="M399.47061 103.7922c-11.05034-5.72444-7.85915-22.1802-7.85915-22.1802l2.1243 1.28651L392.898 79.4877s15.03955 2.33352 14.96 21.64155M415.71537 100.64832s8.19512-4.68293 8.19512-9.36586c0 0 2.34146 4.68293 1.17073 5.85366 0 0 2.34146-2.34146 4.68293-2.34146 0 0-4.68293 5.85366-3.5122 7.02439"></path><rect width="48" height="4.966" x="387.032" y="99.78" fill="#4f66d0"></rect><path fill="#5e7c24" d="M391.33745,90.00963a16.97088,16.97088,0,0,0,3.13684-.40186,18.67222,18.67222,0,0,0,5.79041-2.34692,25.22884,25.22884,0,0,0,2.57422-1.84766,13.42043,13.42043,0,0,1-8.29554,4.57691A10.51235,10.51235,0,0,1,391.33745,90.00963Z"></path><circle cx="396.984" cy="85.429" r="1.171" fill="#f73c4f"></circle><path fill="#5e7c24" d="M393.905 96.0587a9.98589 9.98589 0 001.068.48657 1.34118 1.34118 0 00.954.06714c.2478-.10766.38428-.44311.59448-.80371a7.63751 7.63751 0 01.66272-1.00806 7.62608 7.62608 0 01-.30615 1.167 3.44474 3.44474 0 01-.223.5769 1.16229 1.16229 0 01-.51148.52637 1.45612 1.45612 0 01-1.33679-.17432A2.87521 2.87521 0 01393.905 96.0587zM398.58794 97.22936a10.00019 10.00019 0 001.06787.48681 1.34138 1.34138 0 00.9541.0669c.24768-.10767.38416-.44287.59448-.80347a7.62212 7.62212 0 01.66272-1.00806 7.62936 7.62936 0 01-.30627 1.16675 3.445 3.445 0 01-.2229.57715 1.16147 1.16147 0 01-.5116.52612 1.45617 1.45617 0 01-1.33679-.17431A2.86925 2.86925 0 01398.58794 97.22936zM400.92937 92.54649a9.99834 9.99834 0 001.06787.48682 1.34272 1.34272 0 00.9541.0669c.24781-.10767.38428-.44312.59449-.80372a7.63734 7.63734 0 01.66271-1.00805 7.6248 7.6248 0 01-.30615 1.167 3.454 3.454 0 01-.223.5769 1.16232 1.16232 0 01-.51147.52637 1.45644 1.45644 0 01-1.33692-.17432A2.87608 2.87608 0 01400.92937 92.54649z"></path><path fill="#50661a" d="M554.90178,457.859a116.96314,116.96314,0,0,1-1.61371-16.68115,123.01079,123.01079,0,0,1,.66083-16.76709,89.47907,89.47907,0,0,1,3.42835-16.42944,72.553,72.553,0,0,1,3.06018-7.82056,59.71513,59.71513,0,0,1,4.18762-7.26172,62.895,62.895,0,0,0-6.77448,15.22925c-.76941,2.67481-1.46325,5.37061-2.0028,8.102q-.78919,4.10046-1.25953,8.25342a131.45828,131.45828,0,0,0-.80694,16.68433q.03873,4.181.323,8.35791C554.281,452.30968,554.51732,455.09288,554.90178,457.859Z"></path><path fill="#5e7c24" d="M554.9018,416.02248s-29.38216,3.70052-42.16928-8.90756c-9.4892-9.35633-.46339-25.45988,12.5413-22.55063C533.98016,386.512,544.7187,394.25076,554.9018,416.02248Z"></path><path fill="#50661a" d="M554.90178,416.02257c-4.12451-1.25537-8.18408-2.72559-12.18036-4.35278q-5.99148-2.44849-11.74847-5.44239-2.863-1.51758-5.61829-3.23291a56.55816,56.55816,0,0,1-5.33569-3.689,39.8698,39.8698,0,0,1-4.80048-4.3667,19.31747,19.31747,0,0,1-3.52765-5.41016,19.16592,19.16592,0,0,0,3.75782,5.19483,40.01324,40.01324,0,0,0,4.8706,4.18774,82.16242,82.16242,0,0,0,10.95471,6.74731c3.78479,2.03687,7.69758,3.83155,11.63886,5.5564q2.95779,1.29163,5.96033,2.48218C550.867,414.50987,552.87365,415.2943,554.90178,416.02257Z"></path><path fill="#50661a" d="M523.041 401.16515l.02875-4.33448c-.00806-1.44091.00037-2.87939-.0816-4.31323a37.67043 37.67043 0 00-.38086-4.27417l-.19934-1.05c-.07087-.34936-.19373-.68115-.28559-1.02636a7.556 7.556 0 00-.38745-.99219 8.66324 8.66324 0 00-.57709-.9065 7.29831 7.29831 0 011.936 3.88062 29.1053 29.1053 0 01.53729 4.34131c.029 1.45508.03 2.90869-.0683 4.35693A36.45115 36.45115 0 01523.041 401.16515zM509.21306 401.16515c1.72711-.30054 3.4306-.5481 5.09577-.93189a15.32843 15.32843 0 002.41644-.76074 3.49167 3.49167 0 001.888-1.59082 3.03013 3.03013 0 01-1.65839 2.03809 9.85382 9.85382 0 01-2.4992.94042A15.87332 15.87332 0 01509.21306 401.16515zM514.525 408.69371a48.94592 48.94592 0 006.82074-1.37109 12.80357 12.80357 0 003.12921-1.34253 4.47179 4.47179 0 002.08179-2.59351 4.05223 4.05223 0 01-1.79468 3.00635 10.42967 10.42967 0 01-3.22992 1.5459A20.25321 20.25321 0 01514.525 408.69371zM530.95415 405.85826c.48969-1.43579.94263-2.87451 1.3493-4.32373.39789-1.45068.79035-2.90185 1.04993-4.37891a25.96613 25.96613 0 00.40216-8.9436 15.06588 15.06588 0 01.68659 4.50977 26.96237 26.96237 0 01-.457 4.55664 35.62106 35.62106 0 01-1.21125 4.40454A28.08937 28.08937 0 01530.95415 405.85826zM526.55669 414.36046c.93677-.24609 1.843-.55322 2.73077-.88159a15.25761 15.25761 0 002.54169-1.20728 9.35131 9.35131 0 002.14771-1.74243 7.58177 7.58177 0 001.34185-2.46362 5.45306 5.45306 0 01-.94488 2.77221 7.61326 7.61326 0 01-2.2135 1.98584 10.62509 10.62509 0 01-2.71839 1.13184A10.95084 10.95084 0 01526.55669 414.36046zM541.44487 394.82652a14.29972 14.29972 0 011.38147 3.84278 16.49788 16.49788 0 01.32276 4.10229 13.37874 13.37874 0 01-.86151 4.03028 12.09083 12.09083 0 01-2.08326 3.51513 18.34679 18.34679 0 001.61487-3.677 14.65408 14.65408 0 00.68738-3.90527 18.861 18.861 0 00-.166-3.97925A24.15421 24.15421 0 00541.44487 394.82652zM539.545 416.02257c1.06793-.5354 2.11749-.99463 3.12439-1.53394a12.45071 12.45071 0 002.81915-1.94751 5.29022 5.29022 0 01-2.5169 2.51612A8.21174 8.21174 0 01539.545 416.02257zM548.84606 404.74107a14.38607 14.38607 0 011.00927 4.56714 10.26123 10.26123 0 01-.11322 2.36377 4.54531 4.54531 0 01-.89605 2.18286 7.20243 7.20243 0 00.39648-2.23925 20.02115 20.02115 0 00-.03009-2.27124C549.13365 407.82237 548.95018 406.3026 548.84606 404.74107z"></path><path fill="#c4ce6e" d="M553.83389,415.87446s-22.8927-18.78641-22.533-36.74038c.2669-13.32346,18.165-17.84521,24.99628-6.40319C560.87049,380.39106,562.63709,393.50914,553.83389,415.87446Z"></path><path fill="#8b9d36" d="M553.83391,415.87437A125.57389,125.57389,0,0,1,548.49,404.086q-2.386-6.02307-4.17206-12.27221-.862-3.12855-1.50384-6.3169a53.82363,53.82363,0,0,1-.96875-6.429,39.90265,39.90265,0,0,1-.08252-6.50781,18.597,18.597,0,0,1,1.58917-6.27637,19.94456,19.94456,0,0,0-1.09985,6.30591,39.961,39.961,0,0,0,.358,6.396,83.81873,83.81873,0,0,0,2.67,12.56006c1.10815,4.14649,2.497,8.21631,3.92651,12.27075q1.07245,3.04176,2.24988,6.04859C552.20946,411.88243,553.02269,413.87608,553.83391,415.87437Z"></path><path fill="#8b9d36" d="M542.7094 382.52647c2.03107-2.08911 4.121-4.05639 6.11414-6.10937.994-1.02612 1.953-2.07813 2.853-3.17481a18.33845 18.33845 0 001.21112-1.73461 7.51023 7.51023 0 00.48731-.93921 10.03922 10.03922 0 00.30664-1.02954 7.02278 7.02278 0 01-1.37012 4.157 24.38873 24.38873 0 01-2.77045 3.417A33.57191 33.57191 0 01542.7094 382.52647zM533.19994 372.48741c1.50445.94629 2.86511 1.97925 4.27869 2.91016a18.714 18.714 0 002.16241 1.24853 3.71532 3.71532 0 002.40735.40772 2.94031 2.94031 0 01-2.66632.32861 9.10833 9.10833 0 01-2.45313-1.15014A13.04788 13.04788 0 01533.19994 372.48741zM531.38738 381.5211c1.94488 1.34229 3.79431 2.72608 5.77417 3.8545a13.84848 13.84848 0 003.06659 1.36718 4.654 4.654 0 003.28637-.13647 3.95233 3.95233 0 01-3.445.90039 9.9975 9.9975 0 01-3.40351-1.26318 17.53558 17.53558 0 01-2.88586-2.10352A15.76515 15.76515 0 01531.38738 381.5211zM544.74425 391.49864c1.359-.68872 2.68372-1.40967 4.0047-2.12158 1.31091-.73071 2.615-1.46313 3.86792-2.27148a42.5015 42.5015 0 003.63715-2.5835 27.0719 27.0719 0 003.22772-3.125 13.76354 13.76354 0 01-2.70673 3.70581 23.17449 23.17449 0 01-3.62207 2.846A27.36874 27.36874 0 01544.74425 391.49864zM535.54766 394.15294c.87359.44629 1.72668.86719 2.584 1.25513a17.61646 17.61646 0 002.60608.96508 10.16346 10.16346 0 002.68054.394 8.65681 8.65681 0 002.725-.582 5.05278 5.05278 0 01-2.649 1.35864 7.329 7.329 0 01-3.02527-.208 9.8861 9.8861 0 01-2.70935-1.24536A9.251 9.251 0 01535.54766 394.15294zM559.96764 391.52843a14.11942 14.11942 0 01-4.48132 6.83691 15.66531 15.66531 0 01-1.694 1.22754c-.29914.17944-.6175.32788-.92444.49219a5.26668 5.26668 0 01-.956.42016 11.05592 11.05592 0 01-4.04333.77515 21.51488 21.51488 0 003.72125-1.48584 16.566 16.566 0 003.25189-2.19287 22.14833 22.14833 0 002.77539-2.80566A30.0198 30.0198 0 00559.96764 391.52843zM543.273 404.72545c1.19653.28686 2.24786.6958 3.31878 1.04517a20.9749 20.9749 0 003.296.87573 3.64489 3.64489 0 01-1.803.3977 6.32911 6.32911 0 01-1.811-.32617 7.52848 7.52848 0 01-1.63367-.79175A5.43147 5.43147 0 01543.273 404.72545zM557.85955 403.71983a9.50617 9.50617 0 01-1.04371 2.12549 12.74879 12.74879 0 01-1.44854 1.86988 9.19453 9.19453 0 01-1.83991 1.53247 4.14778 4.14778 0 01-2.28436.73974 8.91809 8.91809 0 001.81488-1.363c.543-.50952 1.07422-1.03662 1.5824-1.595C555.68682 405.93932 556.68059 404.79039 557.85955 403.71983z"></path><path fill="#c4ce6e" d="M553.1459,447.34046s-29.59515,1.06405-41.20629-12.6347c-8.6165-10.16571,1.81019-25.39968,14.50342-21.34165C534.94086,416.08087,544.94605,424.747,553.1459,447.34046Z"></path><path fill="#8b9d36" d="M553.14592,447.34044a125.55209,125.55209,0,0,1-11.80725-5.302c-3.84967-1.95777-7.59936-4.11573-11.249-6.44019q-2.71656-1.775-5.30756-3.74072a53.84651,53.84651,0,0,1-4.98059-4.179,39.91908,39.91908,0,0,1-4.36834-4.82446,18.6,18.6,0,0,1-2.962-5.75757,19.94881,19.94881,0,0,0,3.34827,5.45581,39.95863,39.95863,0,0,0,4.50091,4.55835,83.81074,83.81074,0,0,0,10.31336,7.64991c3.5747,2.37548,7.309,4.50756,11.06372,6.60156q2.81708,1.57068,5.68933,3.0459C549.28643,445.42247,551.21526,446.379,553.14592,447.34044Z"></path><path fill="#8b9d36" d="M522.73784 429.69957c.14032-2.91016.4054-5.76807.54126-8.62622.06622-1.42725.08905-2.85034.03815-4.26831a18.318 18.318 0 00-.23993-2.10181 7.49683 7.49683 0 00-.2561-1.02685 10.06892 10.06892 0 00-.45136-.97461 7.0234 7.0234 0 011.72363 4.02319 24.37754 24.37754 0 01.1839 4.39526A33.57175 33.57175 0 01522.73784 429.69957zM508.96508 428.46568c1.75415-.28613 3.45788-.41186 5.13366-.64941a18.69289 18.69289 0 002.44751-.49487 3.71672 3.71672 0 002.07453-1.28736 2.94 2.94 0 01-1.78156 2.01075 9.1 9.1 0 01-2.60028.761A13.04428 13.04428 0 01508.96508 428.46568zM513.584 436.4381c2.34644-.28052 4.64881-.4668 6.87982-.93116a13.84618 13.84618 0 003.2038-1.00415 4.65488 4.65488 0 002.37372-2.27685 3.95312 3.95312 0 01-1.98706 2.95459 10.00094 10.00094 0 01-3.3877 1.30517 17.53411 17.53411 0 01-3.5556.33252A15.77122 15.77122 0 01513.584 436.4381zM530.20073 435.07994c.563-1.41553 1.07929-2.83276 1.59857-4.24072.49927-1.41528.99237-2.82739 1.39667-4.2627a42.47188 42.47188 0 001.01734-4.34375 27.07618 27.07618 0 00.35211-4.47851 13.76544 13.76544 0 01.42291 4.56933 23.19074 23.19074 0 01-.83228 4.53077A27.3745 27.3745 0 01530.20073 435.07994zM525.06218 443.15587c.9502-.24365 1.86835-.49268 2.76782-.76929a17.61408 17.61408 0 002.59253-1.00073 10.1749 10.1749 0 002.27051-1.47827 8.65869 8.65869 0 001.65784-2.23975 5.05366 5.05366 0 01-1.08692 2.77173 7.32883 7.32883 0 01-2.40594 1.8457 9.88483 9.88483 0 01-2.85529.85938A9.26113 9.26113 0 01525.06218 443.15587zM541.6339 425.02843a14.11885 14.11885 0 011.16449 8.09131 15.6504 15.6504 0 01-.45777 2.04126c-.10552.33252-.246.65454-.36743.98071a5.25791 5.25791 0 01-.4386.94775 11.06034 11.06034 0 01-2.51849 3.25684 21.53035 21.53035 0 001.8067-3.57666 16.56072 16.56072 0 00.98694-3.7959 22.14347 22.14347 0 00.22424-3.93994A30.022 30.022 0 00541.6339 425.02843zM537.85039 445.97032c1.08679-.5769 2.14569-.96606 3.17969-1.41284a20.97334 20.97334 0 003.05078-1.52441 3.64646 3.64646 0 01-1.08868 1.49145 6.33372 6.33372 0 01-1.57361.95386 7.53482 7.53482 0 01-1.74884.4873A5.43 5.43 0 01537.85039 445.97032zM548.1209 435.56358a9.50636 9.50636 0 01.624 2.28418 12.7551 12.7551 0 01.15149 2.36084 9.18869 9.18869 0 01-.36542 2.36621 4.14745 4.14745 0 01-1.22326 2.06641 8.91463 8.91463 0 00.4588-2.2229c.06994-.74121.11944-1.488.131-2.24292C547.96068 438.66563 547.94548 437.14659 548.1209 435.56358z"></path><path fill="#5e7c24" d="M554.894,418.01045s29.53662,2.14315,41.63983-11.12284c8.98168-9.84456-.88224-25.44881-13.71509-21.8566C574.22742,387.43591,563.9127,395.73118,554.894,418.01045Z"></path><path fill="#50661a" d="M554.894,418.01036c1.98688-.83423,3.94928-1.72363,5.8974-2.64062q2.93262-1.35205,5.82086-2.79346c3.84467-1.93066,7.65717-3.92944,11.3291-6.16333a82.17578,82.17578,0,0,0,10.58295-7.3169,39.96172,39.96172,0,0,0,4.64252-4.4392,19.16192,19.16192,0,0,0,3.47821-5.386,19.32424,19.32424,0,0,1-3.23694,5.58911,39.851,39.851,0,0,1-4.56311,4.614,56.54469,56.54469,0,0,1-5.13336,3.96558q-2.65842,1.85742-5.43964,3.52539-5.57849,3.29883-11.44458,6.05542C562.92266,414.85655,558.9464,416.53893,554.894,418.01036Z"></path><path fill="#50661a" d="M585.9254 401.49083a36.44164 36.44164 0 01-.74914-4.28467c-.17475-1.44116-.25049-2.89258-.2984-4.34717a29.112 29.112 0 01.30719-4.36377 7.30006 7.30006 0 011.72827-3.97753 8.69239 8.69239 0 00-.52838.93579 7.57239 7.57239 0 00-.33454 1.01147c-.07348.34937-.17865.68726-.231 1.04l-.14362 1.05908a37.68158 37.68158 0 00-.15448 4.28833c-.0061 1.436.07831 2.87207.14636 4.31128zM599.73406 400.76036a15.88555 15.88555 0 01-5.25147-.02759 9.8559 9.8559 0 01-2.54535-.80713 3.0306 3.0306 0 01-1.76379-1.94775 3.493 3.493 0 001.96942 1.489 15.3388 15.3388 0 002.45331.63208C596.27922 400.39391 597.99346 400.55138 599.73406 400.76036zM594.82726 408.5587a20.25189 20.25189 0 01-7.03723-.3833 10.42292 10.42292 0 01-3.307-1.37329 4.05168 4.05168 0 01-1.95105-2.90723 4.47324 4.47324 0 002.21588 2.48 12.802 12.802 0 003.19574 1.175A48.92411 48.92411 0 00594.82726 408.5587zM578.27123 406.59532a28.08632 28.08632 0 01-2.03772-4.07324 35.64808 35.64808 0 01-1.44226-4.33447 26.96885 26.96885 0 01-.69715-4.52613 15.06623 15.06623 0 01.44745-4.53979 25.96462 25.96462 0 00.874 8.90991c.33728 1.46143.80584 2.88965 1.27984 4.31738Q577.41943 404.48729 578.27123 406.59532zM583.11168 414.85313a10.93721 10.93721 0 01-2.90259-.252 10.62937 10.62937 0 01-2.77441-.98633 7.622 7.622 0 01-2.31525-1.86621 5.45382 5.45382 0 01-1.09008-2.71875 7.58218 7.58218 0 001.47015 2.38965 9.35123 9.35123 0 002.23669 1.62622 15.25456 15.25456 0 002.60193 1.07153C581.242 414.3983 582.16326 414.65709 583.11168 414.85313zM567.21239 396.13316a24.14809 24.14809 0 00-.68689 3.97071 18.86848 18.86848 0 00.04437 3.98266 14.65666 14.65666 0 00.89276 3.86328 18.33219 18.33219 0 001.80689 3.58667 12.08881 12.08881 0 01-2.26605-3.40014 13.37872 13.37872 0 01-1.07318-3.979 16.49543 16.49543 0 01.10559-4.11377A14.29725 14.29725 0 01567.21239 396.13316zM570.2293 417.19908a8.21111 8.21111 0 01-3.47284-.78271 5.29067 5.29067 0 01-2.6463-2.37964 12.44731 12.44731 0 002.91809 1.7959C568.06218 416.318 569.13457 416.72105 570.2293 417.19908zM560.34532 406.42491c-.02154 1.5647-.12445 3.092-.12274 4.61621a20.012 20.012 0 00.09 2.26953 7.20215 7.20215 0 00.51422 2.21534 4.54543 4.54543 0 01-1.01013-2.13257 10.26118 10.26118 0 01-.238-2.35449A14.385 14.385 0 01560.34532 406.42491z"></path><path fill="#8b9d36" d="M553.77044,447.00421s29.53662,2.14316,41.63983-11.12283c8.98168-9.84456-.88224-25.44881-13.71509-21.85661C573.10389,416.42967,562.78917,424.72494,553.77044,447.00421Z"></path><path fill="#5e7c24" d="M553.77043,447.00426c1.96442-.89038,3.92688-1.77588,5.86219-2.72046q2.9208-1.37476,5.79669-2.83618c3.82867-1.95557,7.63824-3.94995,11.29724-6.19336a83.83708,83.83708,0,0,0,10.58563-7.26856,39.9854,39.9854,0,0,0,4.66419-4.39135,19.94609,19.94609,0,0,0,3.5451-5.32984,18.59694,18.59694,0,0,1-3.17,5.64551,39.911,39.911,0,0,1-4.54144,4.66211,53.89325,53.89325,0,0,1-5.12977,3.99438q-2.65923,1.86732-5.44055,3.54468c-3.73193,2.1897-7.55786,4.20923-11.47644,6.02539A125.63686,125.63686,0,0,1,553.77043,447.00426Z"></path><path fill="#5e7c24" d="M584.80187 430.48448a33.571 33.571 0 01-1.22547-8.62988 24.3779 24.3779 0 01.34412-4.3855 7.02222 7.02222 0 011.86926-3.95752 10.00781 10.00781 0 00-.48657.95752 7.497 7.497 0 00-.29346 1.0166 18.32654 18.32654 0 00-.3164 2.0918c-.1026 1.415-.13172 2.83813-.11762 4.26685C584.60723 424.70543 584.76781 427.57115 584.80187 430.48448zM598.61052 429.754a13.04247 13.04247 0 01-5.28277.14746 9.10294 9.10294 0 01-2.5708-.85546 2.94017 2.94017 0 01-1.707-2.07447 3.71528 3.71528 0 002.02619 1.36231 18.71194 18.71194 0 002.42786.584C595.17 429.21617 596.868 429.40416 598.61052 429.754zM593.70372 437.5526a15.777 15.777 0 01-3.53851.25122 17.53773 17.53773 0 01-3.54108-.46216 10.00717 10.00717 0 01-3.33777-1.42773 3.95333 3.95333 0 01-1.87792-3.02539 4.65421 4.65421 0 002.289 2.36206 13.85324 13.85324 0 003.165 1.1206C589.07506 436.91637 591.36913 437.18639 593.70372 437.5526zM577.14769 435.589a27.37292 27.37292 0 01-3.65259-8.3645 23.19271 23.19271 0 01-.66644-4.55786 13.76642 13.76642 0 01.58936-4.551 27.08467 27.08467 0 00.18847 4.48852 42.47678 42.47678 0 00.85816 4.37793c.35168 1.44922.79291 2.87817 1.24023 4.31079C576.17247 432.71886 576.63665 434.15392 577.14769 435.589zM581.98815 443.847a9.25914 9.25914 0 01-2.93824-.11841 9.88639 9.88639 0 01-2.822-.96313 7.32579 7.32579 0 01-2.337-1.93237 5.05254 5.05254 0 01-.98517-2.80933 8.65674 8.65674 0 001.57507 2.29858 10.16468 10.16468 0 002.215 1.56006 17.61492 17.61492 0 002.55432 1.095C580.139 443.28648 581.04747 443.56871 581.98815 443.847zM566.08885 425.12706a30.02717 30.02717 0 00-.54595 3.988 22.14617 22.14617 0 00.08032 3.94555 16.56038 16.56038 0 00.84778 3.82959 21.53846 21.53846 0 001.675 3.6399 11.05828 11.05828 0 01-2.398-3.34644 5.25533 5.25533 0 01-.40374-.96313c-.10944-.33057-.2381-.65723-.33142-.99341a15.66788 15.66788 0 01-.383-2.05664A14.11933 14.11933 0 01566.08885 425.12706zM569.10576 446.193a5.43729 5.43729 0 01-1.818-.0708 7.54326 7.54326 0 01-1.72986-.551 6.33272 6.33272 0 01-1.53778-1.0105 3.64726 3.64726 0 01-1.03351-1.53 20.971 20.971 0 002.9931 1.63453C566.99669 445.14952 568.04076 445.57677 569.10576 446.193zM559.22179 435.41856c.11755 1.58838.04694 3.10572.055 4.61695-.01593.75464.00623 1.50268.04914 2.24609a8.91168 8.91168 0 00.37731 2.238 4.14679 4.14679 0 01-1.147-2.10938 9.18806 9.18806 0 01-.27887-2.37817 12.75454 12.75454 0 01.23749-2.35352A9.50629 9.50629 0 01559.22179 435.41856z"></path><path fill="#8b9d36" d="M563.6404,394.49313s-8.18919-28.45948,2.29519-43.03865c7.78036-10.81905,25.08358-4.38569,24.21547,8.91213C589.56988,369.2692,583.58045,381.07308,563.6404,394.49313Z"></path><path fill="#5e7c24" d="M563.64037,394.493a125.61791,125.61791,0,0,1,2.28937-12.73877c.96887-4.209,2.15594-8.36914,3.5288-12.47241q1.06568-3.06557,2.34632-6.05469a53.83308,53.83308,0,0,1,2.85052-5.84351,39.91064,39.91064,0,0,1,3.625-5.40527,18.601,18.601,0,0,1,4.8703-4.26636,19.94929,19.94929,0,0,0-4.48407,4.56836,39.94733,39.94733,0,0,0-3.33471,5.46948,83.82142,83.82142,0,0,0-4.929,11.85718c-1.44055,4.04321-2.60632,8.18213-3.7301,12.33179q-.8431,3.11352-1.57977,6.25708C564.56816,390.28429,564.10649,392.38731,563.64037,394.493Z"></path><path fill="#5e7c24" d="M573.40441 360.72154c2.85778-.56738 5.695-1.00146 8.5011-1.56079 1.40081-.28076 2.78735-.60278 4.15075-.99512a18.30715 18.30715 0 001.98163-.741 7.53286 7.53286 0 00.9342-.49683 10.0281 10.0281 0 00.83661-.67358 7.023 7.023 0 01-3.487 2.64526 24.36881 24.36881 0 01-4.22015 1.24121A33.56569 33.56569 0 01573.40441 360.72154zM571.271 347.05919c.70185 1.63306 1.236 3.25561 1.87165 4.82422a18.72208 18.72208 0 001.072 2.25537 3.71751 3.71751 0 001.75091 1.70166 2.94047 2.94047 0 01-2.38183-1.24243 9.11241 9.11241 0 01-1.36725-2.33911A13.04726 13.04726 0 01571.271 347.05919zM564.65233 353.4691c.83972 2.20874 1.57721 4.39771 2.56708 6.45044a13.84865 13.84865 0 001.74927 2.86572A4.65272 4.65272 0 00571.752 364.538a3.95268 3.95268 0 01-3.34753-1.21362 10.00072 10.00072 0 01-2.08557-2.97144 17.52461 17.52461 0 01-1.18256-3.36963A15.76685 15.76685 0 01564.65233 353.4691zM569.98845 369.264c1.50977.2041 3.00965.36231 4.50134.52564 1.49408.14233 2.98346.2793 4.47388.32446a42.47662 42.47662 0 004.46088-.06323 27.07111 27.07111 0 004.43091-.74146 13.761 13.761 0 01-4.33161 1.51538 23.17675 23.17675 0 01-4.59741.28809A27.36574 27.36574 0 01569.98845 369.264zM560.90966 366.23106c.46618.863.92974 1.69361 1.41558 2.49952a17.61453 17.61453 0 001.59821 2.27368 10.16719 10.16719 0 001.9834 1.84546 8.65219 8.65219 0 002.57409 1.06714 5.05251 5.05251 0 01-2.9522-.38453 7.32989 7.32989 0 01-2.37287-1.88794 9.8912 9.8912 0 01-1.52429-2.56274A9.25385 9.25385 0 01560.90966 366.23106zM582.50646 377.92735a14.12141 14.12141 0 01-7.56964 3.08667 15.69017 15.69017 0 01-2.09137.04932c-.34815-.022-.69452-.08057-1.04053-.11938a5.27683 5.27683 0 01-1.02564-.19629 11.06294 11.06294 0 01-3.76916-1.65625 21.52913 21.52913 0 003.90729.88818 16.55931 16.55931 0 003.922.03955 22.12829 22.12829 0 003.87732-.73511A30.00322 30.00322 0 00582.50646 377.92735zM561.27123 379.32018c.82251.915 1.45605 1.84863 2.13965 2.74365a20.9672 20.9672 0 002.21685 2.59179 3.64632 3.64632 0 01-1.71032-.6958 6.33863 6.33863 0 01-1.306-1.29614 7.5384 7.5384 0 01-.89588-1.5791A5.43152 5.43152 0 01561.27123 379.32018zM573.85247 386.76939a9.50265 9.50265 0 01-2.06549 1.158 12.76038 12.76038 0 01-2.254.71778 9.19081 9.19081 0 01-2.38446.21753 4.14757 4.14757 0 01-2.30072-.68726 8.91183 8.91183 0 002.26782-.09228c.73614-.11133 1.47272-.2439 2.208-.41529C570.80388 387.36412 572.27416 386.982 573.85247 386.76939z"></path><path fill="#d6694b" d="M533.93513,450.29254v5.34632a1.85288,1.85288,0,0,0,1.83439,1.87085h36.75276a1.85288,1.85288,0,0,0,1.83438-1.87085v-4.927a1.85337,1.85337,0,0,0-1.81386-1.87073L535.79,448.42181A1.8524,1.8524,0,0,0,533.93513,450.29254Z"></path><polygon fill="#e19974" points="535.689 457.51 536.997 485.104 570.431 485.104 572.602 457.51 535.689 457.51"></polygon><rect width="500" height="2" x="100" y="484.104" fill="#935b50"></rect><path fill="#fec165" d="M367.74184,154.55044a9.92989,9.92989,0,0,1-19.85977,0c0-5.48412,4.44576-13.07225,9.92989-13.07225S367.74184,149.06632,367.74184,154.55044Z"></path><path fill="#d77f4a" d="M355.61721,132.74437h4.309a1,1,0,0,1,1,1v8.5947a0,0,0,0,1,0,0h-6.309a0,0,0,0,1,0,0v-8.5947A1,1,0,0,1,355.61721,132.74437Z"></path><rect width="1" height="68.83" x="357.312" y="63.914" fill="#7ca1b1"></rect><rect width="14.868" height="1" x="350.378" y="63.414" fill="#7ca1b1"></rect><path fill="#fec165" d="M474.172,154.55044a9.92989,9.92989,0,0,1-19.85977,0c0-5.48412,4.44576-13.07225,9.92988-13.07225S474.172,149.06632,474.172,154.55044Z"></path><path fill="#d77f4a" d="M462.04739,132.74437h4.309a1,1,0,0,1,1,1v8.5947a0,0,0,0,1,0,0h-6.309a0,0,0,0,1,0,0v-8.5947A1,1,0,0,1,462.04739,132.74437Z"></path><rect width="1" height="68.83" x="463.742" y="63.914" fill="#7ca1b1"></rect><rect width="14.868" height="1" x="456.808" y="63.414" fill="#7ca1b1"></rect><path fill="#fec165" d="M580.012,154.55044a9.92989,9.92989,0,0,1-19.85977,0c0-5.48412,4.44576-13.07225,9.92988-13.07225S580.012,149.06632,580.012,154.55044Z"></path><path fill="#d77f4a" d="M567.88739,132.74437h4.309a1,1,0,0,1,1,1v8.5947a0,0,0,0,1,0,0h-6.309a0,0,0,0,1,0,0v-8.5947A1,1,0,0,1,567.88739,132.74437Z"></path><rect width="1" height="68.83" x="569.582" y="63.914" fill="#7ca1b1"></rect><rect width="14.868" height="1" x="562.648" y="63.414" fill="#7ca1b1"></rect><path fill="#fec165" d="M259.612,154.55044a9.92989,9.92989,0,0,1-19.85977,0c0-5.48412,4.44576-13.07225,9.92988-13.07225S259.612,149.06632,259.612,154.55044Z"></path><path fill="#d77f4a" d="M247.48739,132.74437h4.309a1,1,0,0,1,1,1v8.5947a0,0,0,0,1,0,0h-6.309a0,0,0,0,1,0,0v-8.5947A1,1,0,0,1,247.48739,132.74437Z"></path><rect width="1" height="68.83" x="249.182" y="63.914" fill="#7ca1b1"></rect><rect width="14.868" height="1" x="242.248" y="63.414" fill="#7ca1b1"></rect></svg>